<?xml version="1.0" encoding="UTF-8"?>
<svg id="Livello_2" data-name="Livello 2" xmlns="http://www.w3.org/2000/svg" viewBox="0 0 286.44 90.43">
  <defs>
    <style>
      .cls-1 {
        fill: #fff;
      }

      .cls-2 {
        fill: #e20613;
      }
    </style>
  </defs>
  <polygon class="cls-1" points="51.93 57.71 51.93 19.26 0 71.19 0 90.43 34.09 56.34 34.09 75.55 51.93 57.71"/>
  <polygon class="cls-1" points="109.54 38.5 109.54 19.26 75.46 53.35 75.46 41.14 57.61 58.98 57.61 71.19 76.85 71.19 109.54 38.5"/>
  <polygon class="cls-1" points="90.4 0 57.61 32.85 57.61 52.08 90.4 19.24 90.4 0"/>
  <path class="cls-1" d="M113.15,43.41l15.63-27.11h7.27l-2.34,27.11h-5.91l.71-6.06h-5.91l-3.28,6.06h-6.17ZM125.21,32.47h4.05l.97-7.57c.1-.63.19-1.25.27-1.86.07-.61.18-1.24.31-1.89h-.08c-.23.61-.47,1.2-.73,1.78-.26.58-.56,1.19-.89,1.82l-3.9,7.72Z"/>
  <path class="cls-1" d="M144.75,43.79c-1.69,0-3.06-.38-4.12-1.14-1.06-.76-1.79-1.82-2.2-3.2-.41-1.38-.5-3.01-.27-4.9.21-1.69.6-3.41,1.16-5.17.57-1.75,1.3-3.43,2.19-5.04.89-1.6,1.93-3.03,3.12-4.28,1.19-1.25,2.51-2.24,3.96-2.97,1.45-.73,3.02-1.1,4.72-1.1,1.26,0,2.45.15,3.56.45,1.11.3,2.1.8,2.98,1.48l-3.18,4.62c-.64-.5-1.27-.88-1.89-1.12-.61-.24-1.26-.36-1.94-.36-.93,0-1.81.31-2.63.93-.82.62-1.56,1.43-2.23,2.44-.67,1.01-1.26,2.11-1.77,3.29-.51,1.19-.93,2.35-1.24,3.5-.32,1.15-.53,2.16-.64,3.05-.19,1.51-.07,2.63.36,3.35s1.12,1.08,2.08,1.08c.88,0,1.76-.13,2.64-.4.88-.26,1.78-.6,2.72-1l-.63,5.11c-1.07.45-2.18.79-3.34,1.02-1.16.23-2.3.34-3.41.34Z"/>
  <path class="cls-1" d="M162.89,43.79c-1.69,0-3.06-.38-4.12-1.14-1.06-.76-1.79-1.82-2.2-3.2-.41-1.38-.5-3.01-.27-4.9.21-1.69.6-3.41,1.16-5.17.57-1.75,1.3-3.43,2.19-5.04.89-1.6,1.93-3.03,3.12-4.28,1.19-1.25,2.51-2.24,3.96-2.97,1.45-.73,3.02-1.1,4.72-1.1,1.26,0,2.45.15,3.56.45,1.11.3,2.1.8,2.98,1.48l-3.18,4.62c-.64-.5-1.27-.88-1.89-1.12-.61-.24-1.26-.36-1.94-.36-.93,0-1.81.31-2.63.93-.82.62-1.56,1.43-2.23,2.44-.67,1.01-1.26,2.11-1.77,3.29-.51,1.19-.93,2.35-1.24,3.5-.32,1.15-.53,2.16-.64,3.05-.19,1.51-.07,2.63.36,3.35s1.12,1.08,2.08,1.08c.88,0,1.76-.13,2.64-.4.88-.26,1.78-.6,2.72-1l-.63,5.11c-1.07.45-2.18.79-3.34,1.02-1.16.23-2.3.34-3.41.34Z"/>
  <path class="cls-1" d="M178.67,43.79c-1.31,0-2.48-.14-3.49-.42-1.01-.28-1.87-.72-2.58-1.32l1.49-5.64c.79.58,1.63,1.08,2.54,1.5.91.42,1.82.63,2.72.63.43,0,.85-.05,1.27-.15.42-.1.79-.26,1.14-.47.34-.21.62-.5.84-.85.22-.35.36-.79.43-1.32s.04-1-.07-1.42c-.11-.42-.32-.82-.61-1.21-.29-.39-.71-.85-1.25-1.38-.63-.61-1.19-1.25-1.67-1.93-.49-.68-.83-1.44-1.04-2.29-.21-.85-.25-1.84-.11-2.97.15-1.21.48-2.33,1-3.35.52-1.02,1.2-1.92,2.06-2.71.85-.78,1.87-1.39,3.04-1.82s2.51-.64,4-.64c1.14,0,2.24.16,3.31.47,1.07.32,2.05.79,2.93,1.42l-3.03,4.96c-.76-.56-1.48-.97-2.16-1.23-.67-.27-1.31-.4-1.92-.4-.35,0-.69.06-1.02.17-.33.11-.64.28-.93.51-.29.23-.54.52-.73.87-.19.35-.32.76-.38,1.21-.06.48-.02.92.12,1.31.14.39.38.79.72,1.21.34.42.81.89,1.4,1.42.73.61,1.31,1.27,1.72,1.99.42.72.68,1.5.79,2.33.11.83.11,1.75-.02,2.76-.16,1.26-.51,2.42-1.07,3.48-.56,1.06-1.3,1.99-2.21,2.78-.92.8-1.98,1.41-3.2,1.86-1.21.44-2.56.66-4.02.66Z"/>
  <path class="cls-1" d="M190.16,43.41l9.03-27.03h12.87l-1.64,5h-7.04l-1.85,5.53h6.55l-1.71,5h-6.51l-2.19,6.44h7.04l-1.68,5.07h-12.87Z"/>
  <path class="cls-1" d="M207.23,43.41l9.03-27.03h5.98c2.7,0,4.65.56,5.85,1.68,1.2,1.12,1.67,2.74,1.41,4.86-.19,1.54-.58,2.91-1.17,4.13-.59,1.21-1.34,2.22-2.25,3.03-.91.81-1.89,1.43-2.95,1.86l1.92,11.47h-6.32l-1.12-10.3h-1.21l-3.42,10.3h-5.75ZM218.98,28.53c.6,0,1.17-.13,1.7-.4.53-.26.98-.63,1.37-1.1.38-.47.7-1,.93-1.59.24-.59.39-1.21.47-1.84.1-.81-.03-1.43-.38-1.85s-.95-.64-1.81-.64h-.83l-2.46,7.42h1.02Z"/>
  <path class="cls-1" d="M231.38,43.41l2.37-27.03h5.79l-1.81,14.76c-.07.53-.14,1.09-.22,1.67-.08.58-.19,1.17-.31,1.76s-.26,1.2-.41,1.84h.11c.33-.81.68-1.63,1.06-2.48.38-.84.8-1.67,1.25-2.48l8.17-15.07h6.13l-15.62,27.03h-6.51Z"/>
  <path class="cls-1" d="M247.02,43.41l9.03-27.03h12.87l-1.63,5h-7.04l-1.85,5.53h6.55l-1.71,5h-6.51l-2.19,6.44h7.04l-1.68,5.07h-12.87Z"/>
  <path class="cls-1" d="M264.09,43.41l9.03-27.03h5.98c2.7,0,4.65.56,5.85,1.68,1.2,1.12,1.67,2.74,1.41,4.86-.19,1.54-.58,2.91-1.17,4.13-.59,1.21-1.34,2.22-2.25,3.03-.91.81-1.89,1.43-2.95,1.86l1.92,11.47h-6.32l-1.12-10.3h-1.21l-3.42,10.3h-5.75ZM275.84,28.53c.6,0,1.17-.13,1.7-.4.53-.26.98-.63,1.37-1.1.38-.47.7-1,.93-1.59.24-.59.39-1.21.47-1.84.1-.81-.03-1.43-.38-1.85s-.95-.64-1.81-.64h-.83l-2.46,7.42h1.02Z"/>
  <path class="cls-2" d="M111.68,75.09l9.04-27.03h7.57l-1.68,18.02h.11l10.31-18.02h7.99l-9.07,27.03h-5.49l4.41-13.14c.23-.66.45-1.26.66-1.8.2-.54.41-1.07.61-1.57.2-.51.36-.96.49-1.36h-.11l-10.37,17.87h-5l1.69-17.76h-.11c-.18.61-.35,1.23-.53,1.88-.18.64-.36,1.27-.54,1.89-.18.62-.36,1.21-.56,1.76l-4.11,12.23h-5.3Z"/>
  <path class="cls-2" d="M138.41,75.09l15.63-27.11h7.27l-2.34,27.11h-5.91l.71-6.06h-5.91l-3.28,6.06h-6.17ZM150.47,64.15h4.05l.97-7.57c.1-.63.19-1.25.27-1.86.07-.6.18-1.24.31-1.89h-.08c-.23.61-.47,1.2-.73,1.78-.26.58-.56,1.19-.89,1.82l-3.9,7.72Z"/>
  <path class="cls-2" d="M161.43,75.09l9.04-27.03h6.47l1.74,17.6h.11c.18-.66.38-1.36.58-2.1.21-.74.42-1.46.64-2.16.22-.69.4-1.29.54-1.8l3.92-11.55h5.34l-9.07,27.03h-6.47l-1.67-18.13h-.11c-.11.51-.26,1.05-.43,1.65-.17.59-.34,1.19-.51,1.8-.16.61-.33,1.18-.5,1.72-.17.54-.31,1.03-.44,1.46l-3.87,11.51h-5.3Z"/>
  <path class="cls-2" d="M183.2,75.09l15.63-27.11h7.27l-2.34,27.11h-5.91l.71-6.06h-5.91l-3.28,6.06h-6.17ZM195.26,64.15h4.05l.97-7.57c.1-.63.19-1.25.27-1.86.07-.6.18-1.24.31-1.89h-.08c-.23.61-.47,1.2-.73,1.78-.26.58-.56,1.19-.89,1.82l-3.9,7.72Z"/>
  <path class="cls-2" d="M215.82,75.47c-2.85,0-4.92-.81-6.19-2.42-1.28-1.61-1.73-3.92-1.36-6.93.22-1.77.62-3.54,1.22-5.32s1.37-3.46,2.32-5.04c.95-1.58,2.07-2.97,3.35-4.18,1.28-1.21,2.73-2.16,4.35-2.86s3.36-1.04,5.26-1.04c1.36,0,2.63.16,3.8.47,1.17.32,2.14.75,2.91,1.31l-3.06,4.85c-.67-.48-1.4-.86-2.17-1.14-.77-.28-1.61-.42-2.52-.42-1.24,0-2.38.4-3.44,1.21-1.06.81-2,1.86-2.83,3.16s-1.5,2.71-2.01,4.22c-.51,1.51-.86,2.97-1.03,4.35-.13,1.04-.11,1.9.04,2.59.15.7.45,1.21.89,1.55.44.34,1.01.51,1.72.51.4,0,.78-.02,1.14-.06.36-.04.72-.11,1.09-.21l1.9-5.6h-3.29l1.66-4.88h9.05l-4.79,14.31c-1.4.48-2.77.86-4.13,1.14-1.36.28-2.65.42-3.86.42Z"/>
  <path class="cls-2" d="M227.83,75.09l9.04-27.03h12.87l-1.64,5h-7.04l-1.85,5.53h6.55l-1.71,5h-6.51l-2.19,6.44h7.04l-1.68,5.07h-12.87Z"/>
  <path class="cls-2" d="M244.91,75.09l9.04-27.03h5.98c2.7,0,4.65.56,5.85,1.68s1.67,2.74,1.41,4.86c-.19,1.54-.58,2.91-1.17,4.13-.59,1.21-1.34,2.22-2.25,3.03s-1.89,1.43-2.95,1.86l1.92,11.47h-6.32l-1.12-10.3h-1.21l-3.42,10.3h-5.75ZM256.66,60.21c.6,0,1.17-.13,1.7-.4.53-.26.98-.63,1.37-1.1.38-.47.7-1,.93-1.59.24-.59.39-1.21.47-1.84.1-.81-.03-1.43-.38-1.85-.35-.43-.95-.64-1.81-.64h-.83l-2.46,7.42h1.02Z"/>
</svg>