<?xml version="1.0" encoding="UTF-8"?>
<svg id="Livello_2" data-name="Livello 2" xmlns="http://www.w3.org/2000/svg" viewBox="0 0 300 300">
  <defs>
    <style>
      .cls-1 {
        fill: #111;
      }

      .cls-2 {
        fill: #fff;
      }

      .cls-3 {
        fill: #e20613;
      }
    </style>
  </defs>
  <rect class="cls-1" x="-430.55" y="-119.99" width="1016" height="648"/>
  <polygon class="cls-2" points="144.09 130.77 144.09 50.8 36.08 158.81 36.08 198.83 106.99 127.92 106.99 167.88 144.09 130.77"/>
  <polygon class="cls-2" points="263.92 90.82 263.92 50.8 193.03 121.71 193.03 96.31 155.91 133.42 155.91 158.81 195.92 158.81 263.92 90.82"/>
  <polygon class="cls-2" points="224.11 10.74 155.91 79.07 155.91 119.06 224.11 50.76 224.11 10.74"/>
  <path class="cls-2" d="M34.79,241.84l15.9-35.14h10.94l1.28,35.14h-8.88l.1-6.77h-7.41l-2.75,6.77h-9.18ZM49.61,227.85h4.71l.2-9.37c0-.79,0-1.56.02-2.33.01-.77.07-1.56.17-2.38h-.15c-.16.79-.37,1.55-.61,2.28-.25.74-.5,1.5-.76,2.28l-3.58,9.52Z"/>
  <path class="cls-2" d="M77.34,242.33c-2.26,0-4.14-.5-5.64-1.5-1.51-1-2.64-2.39-3.41-4.17-.77-1.78-1.15-3.88-1.15-6.31,0-2.26.24-4.52.71-6.8.47-2.27,1.16-4.45,2.06-6.53.9-2.08,2.03-3.92,3.39-5.52,1.36-1.6,2.93-2.87,4.71-3.8,1.78-.93,3.77-1.4,5.96-1.4,1.7,0,3.35.21,4.96.61s3.08,1.1,4.42,2.09l-3.78,6.72c-.98-.72-1.9-1.24-2.75-1.57-.85-.33-1.72-.49-2.6-.49-1.11,0-2.1.39-2.97,1.15-.87.77-1.63,1.78-2.28,3.04-.65,1.26-1.2,2.63-1.62,4.1-.43,1.47-.75,2.91-.96,4.32-.21,1.41-.32,2.63-.32,3.68,0,1.77.29,3.04.88,3.83.59.79,1.42,1.18,2.5,1.18,1.18,0,2.34-.18,3.48-.54,1.14-.36,2.32-.83,3.53-1.42v7.41c-1.37.65-2.86,1.14-4.47,1.45-1.6.31-3.16.47-4.66.47Z"/>
  <path class="cls-2" d="M101.63,242.33c-2.26,0-4.14-.5-5.64-1.5-1.51-1-2.64-2.39-3.41-4.17-.77-1.78-1.15-3.88-1.15-6.31,0-2.26.24-4.52.71-6.8s1.16-4.45,2.06-6.53c.9-2.08,2.03-3.92,3.39-5.52s2.93-2.87,4.71-3.8c1.78-.93,3.77-1.4,5.96-1.4,1.7,0,3.35.21,4.96.61,1.6.41,3.07,1.1,4.42,2.09l-3.78,6.72c-.98-.72-1.9-1.24-2.75-1.57-.85-.33-1.72-.49-2.6-.49-1.11,0-2.1.39-2.97,1.15-.87.77-1.63,1.78-2.28,3.04-.65,1.26-1.19,2.63-1.62,4.1-.43,1.47-.74,2.91-.96,4.32-.21,1.41-.32,2.63-.32,3.68,0,1.77.29,3.04.88,3.83s1.42,1.18,2.5,1.18c1.18,0,2.34-.18,3.48-.54,1.14-.36,2.32-.83,3.53-1.42v7.41c-1.37.65-2.86,1.14-4.47,1.45-1.6.31-3.16.47-4.66.47Z"/>
  <path class="cls-2" d="M123.23,242.33c-1.73,0-3.31-.17-4.71-.52-1.41-.34-2.68-.94-3.83-1.79l1.23-8.34c.98.72,2.16,1.39,3.53,2.01s2.67.93,3.88.93c.42,0,.85-.05,1.28-.15s.81-.26,1.15-.49c.34-.23.61-.55.81-.96s.29-.92.29-1.55c0-.52-.11-1.01-.32-1.47-.21-.46-.55-.93-1.01-1.42-.46-.49-1.06-1.05-1.82-1.67-1.05-.88-1.91-1.77-2.6-2.67-.69-.9-1.2-1.89-1.52-2.97-.33-1.08-.49-2.31-.49-3.68,0-1.57.26-3.04.78-4.42.52-1.37,1.29-2.58,2.31-3.61s2.27-1.83,3.78-2.4c1.5-.57,3.24-.86,5.2-.86,1.54,0,3.08.21,4.61.64,1.54.43,2.94,1.08,4.22,1.96l-3.48,7.31c-1.02-.72-2-1.29-2.97-1.72-.97-.42-1.84-.64-2.63-.64-.46,0-.87.07-1.23.2-.36.13-.68.32-.96.56-.28.25-.48.56-.61.93-.13.38-.2.79-.2,1.25,0,.43.08.86.25,1.3.16.44.48.92.96,1.42.47.51,1.17,1.12,2.09,1.84,1.11.85,1.99,1.73,2.65,2.65s1.14,1.91,1.45,2.97c.31,1.06.47,2.27.47,3.61,0,1.57-.26,3.07-.79,4.49s-1.31,2.67-2.36,3.75c-1.05,1.08-2.36,1.93-3.93,2.55-1.57.62-3.4.93-5.5.93Z"/>
  <path class="cls-2" d="M138.04,241.84l7.41-35.04h17.37l-1.47,7.21h-8.83l-1.32,6.08h8.24l-1.62,7.21h-8.15l-1.57,7.21h8.88l-1.57,7.31h-17.37Z"/>
  <path class="cls-2" d="M160.72,241.84l7.41-35.04h8.34c3.73,0,6.49.74,8.29,2.21s2.7,3.63,2.7,6.48c0,2.03-.29,3.82-.88,5.37-.59,1.55-1.38,2.85-2.38,3.88-1,1.03-2.12,1.82-3.36,2.38l4.52,14.72h-9.42l-3.04-12.96h-.93l-2.7,12.96h-8.54ZM174.31,222.16c.65,0,1.25-.15,1.79-.47.54-.31.99-.74,1.35-1.28.36-.54.64-1.15.83-1.82.2-.67.29-1.38.29-2.14,0-.85-.21-1.51-.61-1.99s-1.07-.71-1.99-.71h-.79l-1.72,8.39h.84Z"/>
  <path class="cls-2" d="M193.06,241.84l-1.23-35.04h8.69l-.15,17.72c0,.72-.02,1.46-.05,2.23-.03.77-.08,1.55-.15,2.33s-.15,1.57-.24,2.36h.1c.29-1.08.61-2.17.96-3.29.34-1.11.71-2.13,1.1-3.04l7.51-18.3h9.13l-15.95,35.04h-9.72Z"/>
  <path class="cls-2" d="M214.5,241.84l7.41-35.04h17.37l-1.47,7.21h-8.83l-1.32,6.08h8.24l-1.62,7.21h-8.15l-1.57,7.21h8.88l-1.57,7.31h-17.37Z"/>
  <path class="cls-2" d="M237.17,241.84l7.41-35.04h8.34c3.73,0,6.49.74,8.29,2.21s2.7,3.63,2.7,6.48c0,2.03-.29,3.82-.88,5.37-.59,1.55-1.38,2.85-2.38,3.88-1,1.03-2.12,1.82-3.36,2.38l4.52,14.72h-9.42l-3.04-12.96h-.93l-2.7,12.96h-8.54ZM250.76,222.16c.65,0,1.25-.15,1.79-.47.54-.31.99-.74,1.35-1.28.36-.54.64-1.15.83-1.82.2-.67.29-1.38.29-2.14,0-.85-.21-1.51-.61-1.99s-1.07-.71-1.99-.71h-.79l-1.72,8.39h.83Z"/>
  <path class="cls-3" d="M48.02,282.9l7.41-35.04h11.19l.34,21.59h.15l9.47-21.59h11.73l-7.51,35.04h-8.05l3.19-15.07c.23-1.01.43-1.9.61-2.65.18-.75.36-1.42.54-2.01.18-.59.32-1.11.42-1.57h-.15l-9.52,21.3h-7.36l-.24-21.05h-.15c-.16.95-.31,1.86-.44,2.72-.13.87-.26,1.69-.39,2.45-.13.77-.28,1.5-.44,2.18l-2.9,13.69h-7.9Z"/>
  <path class="cls-3" d="M83.99,282.9l15.9-35.14h10.94l1.28,35.14h-8.88l.1-6.77h-7.41l-2.75,6.77h-9.18ZM98.81,268.91h4.71l.2-9.37c0-.79,0-1.56.02-2.33.02-.77.07-1.56.17-2.38h-.15c-.16.79-.37,1.55-.61,2.28-.24.74-.5,1.5-.76,2.28l-3.58,9.52Z"/>
  <path class="cls-3" d="M115.1,282.9l7.41-35.04h9.62l4.61,21.1h.15c.13-.85.26-1.73.39-2.63s.28-1.78.44-2.65c.16-.87.31-1.61.44-2.23l2.9-13.59h7.9l-7.41,35.04h-9.67l-4.61-21.84h-.15c-.07.62-.16,1.29-.27,2.01-.11.72-.22,1.46-.32,2.21-.1.75-.2,1.47-.29,2.14-.1.67-.21,1.27-.34,1.79l-2.94,13.69h-7.85Z"/>
  <path class="cls-3" d="M144.6,282.9l15.9-35.14h10.94l1.28,35.14h-8.88l.1-6.77h-7.41l-2.75,6.77h-9.18ZM159.42,268.91h4.71l.2-9.37c0-.79,0-1.56.02-2.33.02-.77.07-1.56.17-2.38h-.15c-.16.79-.37,1.55-.61,2.28-.24.74-.5,1.5-.76,2.28l-3.58,9.52Z"/>
  <path class="cls-3" d="M188.52,283.39c-3.8,0-6.67-1.06-8.61-3.17-1.95-2.11-2.92-5.13-2.92-9.05,0-2.19.25-4.42.74-6.7.49-2.27,1.22-4.42,2.18-6.45.96-2.03,2.2-3.85,3.7-5.47s3.27-2.89,5.3-3.8c2.03-.92,4.35-1.37,6.97-1.37,1.8,0,3.51.21,5.13.64,1.62.43,2.97.98,4.05,1.67l-3.53,7.07c-.92-.62-1.9-1.11-2.95-1.47s-2.16-.54-3.34-.54c-1.54,0-2.89.51-4.05,1.52-1.16,1.01-2.14,2.33-2.95,3.95s-1.4,3.35-1.79,5.18c-.39,1.83-.59,3.57-.59,5.2,0,1.21.13,2.22.39,3.02.26.8.66,1.4,1.2,1.79.54.39,1.19.59,1.94.59.43,0,.83-.02,1.2-.07.38-.05.78-.12,1.2-.22l1.32-6.23h-3.98l1.47-7.07h12.42l-3.97,18.84c-1.83.69-3.66,1.22-5.47,1.6-1.81.38-3.51.56-5.08.56Z"/>
  <path class="cls-3" d="M204.17,282.9l7.41-35.04h17.37l-1.47,7.21h-8.83l-1.32,6.08h8.24l-1.62,7.21h-8.15l-1.57,7.21h8.88l-1.57,7.31h-17.37Z"/>
  <path class="cls-3" d="M226.84,282.9l7.41-35.04h8.34c3.73,0,6.49.74,8.29,2.21s2.7,3.63,2.7,6.48c0,2.03-.29,3.82-.88,5.37-.59,1.55-1.38,2.85-2.38,3.88s-2.12,1.82-3.36,2.38l4.52,14.72h-9.42l-3.04-12.96h-.93l-2.7,12.96h-8.54ZM240.43,263.22c.65,0,1.25-.16,1.79-.47.54-.31.99-.74,1.35-1.28.36-.54.64-1.14.83-1.82.2-.67.29-1.38.29-2.14,0-.85-.21-1.51-.61-1.99-.41-.47-1.07-.71-1.99-.71h-.79l-1.72,8.39h.83Z"/>
</svg>